HIERARCHY
ROOT joint_Root
{
	OFFSET 0.0 0.0 0.0
	CHANNELS 6 Xposition Yposition Zposition Zrotation Xrotation Yrotation 
	JOINT Hips
	{
		OFFSET 4.5925 91.4895 -427.239
		CHANNELS 6 Xposition Yposition Zposition Zrotation Xrotation Yrotation 
		JOINT Spine
		{
			OFFSET 15.7357 0.0 0.0
			CHANNELS 6 Xposition Yposition Zposition Zrotation Xrotation Yrotation 
			JOINT Chest
			{
				OFFSET 8.98455 -0.406207 0.0
				CHANNELS 6 Xposition Yposition Zposition Zrotation Xrotation Yrotation 
				JOINT Neck
				{
					OFFSET 16.3773 0.0 0.0
					CHANNELS 6 Xposition Yposition Zposition Zrotation Xrotation Yrotation 
					JOINT Head
					{
						OFFSET 6.45672 0.0 0.0
						CHANNELS 6 Xposition Yposition Zposition Zrotation Xrotation Yrotation 
						End Site
						{
							OFFSET 0.0 0.0 0.0
						}
					}
				}
				JOINT Shoulder_L
				{
					OFFSET 12.9942 -0.242716 4.98039
					CHANNELS 6 Xposition Yposition Zposition Zrotation Xrotation Yrotation 
					JOINT UpperArm_L
					{
						OFFSET 5.34809 0.0 0.0
						CHANNELS 6 Xposition Yposition Zposition Zrotation Xrotation Yrotation 
						JOINT LowerArm_L
						{
							OFFSET 24.3286 1.87007e-05 0.0
							CHANNELS 6 Xposition Yposition Zposition Zrotation Xrotation Yrotation 
							JOINT Hand_L
							{
								OFFSET 22.2916 0.0 0.0
								CHANNELS 6 Xposition Yposition Zposition Zrotation Xrotation Yrotation 
								End Site
								{
									OFFSET 0.0 0.0 0.0
								}
							}
						}
					}
				}
				JOINT Shoulder_R
				{
					OFFSET 12.9945 -0.242716 -4.98039
					CHANNELS 6 Xposition Yposition Zposition Zrotation Xrotation Yrotation 
					JOINT UpperArm_R
					{
						OFFSET -5.34813 0.0 0.0
						CHANNELS 6 Xposition Yposition Zposition Zrotation Xrotation Yrotation 
						JOINT LowerArm_R
						{
							OFFSET -24.3289 0.000322201 0.0
							CHANNELS 6 Xposition Yposition Zposition Zrotation Xrotation Yrotation 
							JOINT Hand_R
							{
								OFFSET -22.2915 -0.000108084 0.0
								CHANNELS 6 Xposition Yposition Zposition Zrotation Xrotation Yrotation 
								End Site
								{
									OFFSET 0.0 0.0 0.0
								}
							}
						}
					}
				}
			}
		}
		JOINT UpperLeg_L
		{
			OFFSET -2.19248 -6.46944 0.0
			CHANNELS 6 Xposition Yposition Zposition Zrotation Xrotation Yrotation 
			JOINT LowerLeg_L
			{
				OFFSET 39.0811 0.0 -1.23785e-05
				CHANNELS 6 Xposition Yposition Zposition Zrotation Xrotation Yrotation 
				JOINT Foot_L
				{
					OFFSET 40.9854 0.0 -1.26872e-05
					CHANNELS 6 Xposition Yposition Zposition Zrotation Xrotation Yrotation 
					JOINT Toes_L
					{
						OFFSET 11.7543 0.0 0.0
						CHANNELS 6 Xposition Yposition Zposition Zrotation Xrotation Yrotation 
						End Site
						{
							OFFSET 0.0 0.0 0.0
						}
					}
				}
			}
		}
		JOINT UpperLeg_R
		{
			OFFSET -2.19251 6.46944 0.0
			CHANNELS 6 Xposition Yposition Zposition Zrotation Xrotation Yrotation 
			JOINT LowerLeg_R
			{
				OFFSET -39.0811 -0.00228153 -0.0401928
				CHANNELS 6 Xposition Yposition Zposition Zrotation Xrotation Yrotation 
				JOINT Foot_R
				{
					OFFSET -40.9854 0.0 0.0
					CHANNELS 6 Xposition Yposition Zposition Zrotation Xrotation Yrotation 
					JOINT Toes_R
					{
						OFFSET -11.7543 0.0 0.0
						CHANNELS 6 Xposition Yposition Zposition Zrotation Xrotation Yrotation 
						End Site
						{
							OFFSET 0.0 0.0 0.0
						}
					}
				}
			}
		}
	}
}
MOTION
Frames:	6
Frame Time:	0.0333333
0.000000 0.000000 0.000000 0.000000 0.000000 -0.000000 -1.927250 89.541600 1.438640 88.898700 -3.247110 12.643100 15.735700 0.000005 -0.000001 89.480400 78.110900 -89.709000 8.984550 -0.406207 -0.000000 16.010900 -0.228846 -0.425621 16.377300 -0.000001 -0.000001 4.361230 -3.682410 0.813374 6.456720 -0.000001 -0.000000 -6.865440 -2.565160 0.299404 12.994200 -0.242716 4.980390 -91.346100 6.125290 -77.580800 5.348090 -0.000007 -0.000001 -59.689700 34.568900 -25.811500 24.328600 0.000019 0.000005 9.762960 23.426400 -23.402200 22.291600 -0.000001 0.000005 8.993810 5.243580 1.601870 12.994500 -0.242716 -4.980390 88.860100 10.529300 -83.785800 -5.348130 -0.000001 -0.000004 -58.725200 36.361000 -20.827800 -24.328900 0.000322 -0.000009 1.646550 4.382120 -20.629100 -22.291500 -0.000108 -0.000004 16.416800 5.425140 -3.773070 -2.192480 -6.469440 -0.000000 -172.615000 -12.200100 0.945754 39.081100 -0.000007 -0.000012 -0.292270 0.396212 36.415300 40.985400 -0.000006 -0.000013 -1.200300 2.898360 -74.078200 11.754300 -0.000000 0.000003 -0.000237 -0.002139 -16.657800 -2.192510 6.469440 -0.000001 174.567000 18.345700 -177.797000 -39.081100 -0.002282 -0.040193 -0.199480 0.283964 35.529600 -40.985400 0.000008 0.000006 4.998570 10.071400 -74.928200 -11.754300 -0.000006 -0.000006 -0.002019 -0.028953 -17.750400
0.000000 0.000000 0.000000 0.000000 0.000000 -0.000000 -1.903600 89.541900 1.410290 88.898000 -3.215330 12.669400 15.735700 0.000005 -0.000001 89.465800 78.084800 -89.685300 8.984550 -0.406207 -0.000000 16.062900 -0.234736 -0.406511 16.377300 -0.000001 -0.000001 4.394440 -3.765570 0.884548 6.456720 -0.000001 -0.000000 -6.926430 -2.647430 0.344749 12.994200 -0.242716 4.980390 -91.323000 6.003570 -77.548400 5.348090 -0.000007 -0.000001 -59.804400 34.146700 -25.755700 24.328600 0.000019 0.000005 10.252400 23.244300 -24.622000 22.291600 -0.000001 0.000005 9.040550 5.243120 1.613960 12.994500 -0.242716 -4.980390 88.857800 10.503000 -83.758000 -5.348130 -0.000001 -0.000004 -58.756200 36.342000 -20.866100 -24.328900 0.000322 -0.000009 1.622110 4.313180 -20.645500 -22.291500 -0.000108 -0.000004 16.392800 5.426780 -3.829050 -2.192480 -6.469440 -0.000000 -172.624000 -12.211800 0.938543 39.081100 -0.000007 -0.000012 -0.293421 0.397514 36.433100 40.985400 -0.000006 -0.000013 -1.176740 2.907910 -74.065800 11.754300 -0.000000 0.000003 -0.000228 -0.002063 -16.655100 -2.192510 6.469440 -0.000001 174.537000 18.385200 -177.794000 -39.081100 -0.002282 -0.040193 -0.201355 0.286514 35.536900 -40.985400 0.000008 0.000006 4.938700 10.100600 -74.893300 -11.754300 -0.000006 -0.000006 -0.001916 -0.027665 -17.698000
0.000000 0.000000 0.000000 0.000000 0.000000 -0.000000 -1.885660 89.541300 1.378690 88.903800 -3.169260 12.678600 15.735700 0.000005 -0.000001 89.460700 78.077700 -89.665100 8.984550 -0.406207 -0.000000 16.077100 -0.235846 -0.375857 16.377300 -0.000001 -0.000001 4.421930 -3.836390 0.947631 6.456720 -0.000001 -0.000000 -6.954970 -2.714340 0.320689 12.994200 -0.242716 4.980390 -91.303100 5.892830 -77.507400 5.348090 -0.000007 -0.000001 -59.678400 33.786400 -25.809500 24.328600 0.000019 0.000005 10.897600 22.946800 -26.280800 22.291600 -0.000001 0.000005 9.133060 5.245310 1.556480 12.994500 -0.242716 -4.980390 88.861400 10.458200 -83.751700 -5.348130 -0.000001 -0.000004 -58.851900 36.267000 -20.803000 -24.328900 0.000322 -0.000009 1.649290 4.383600 -20.654000 -22.291500 -0.000108 -0.000004 16.383400 5.426640 -3.824010 -2.192480 -6.469440 -0.000000 -172.659000 -12.182000 0.899517 39.081100 -0.000007 -0.000012 -0.290601 0.393356 36.456500 40.985400 -0.000006 -0.000013 -1.151020 2.917180 -74.051100 11.754300 -0.000000 0.000003 -0.000236 -0.002125 -16.657300 -2.192510 6.469440 -0.000001 174.487000 18.435500 -177.795000 -39.081100 -0.002282 -0.040193 -0.208830 0.296956 35.539000 -40.985400 0.000008 0.000006 4.836000 10.151300 -74.856200 -11.754300 -0.000006 -0.000006 -0.002057 -0.029430 -17.769800
0.000000 0.000000 0.000000 0.000000 0.000000 -0.000000 -1.867620 89.544400 1.350660 88.895000 -3.123950 12.690400 15.735700 0.000005 -0.000001 89.516200 78.071000 -89.704200 8.984550 -0.406207 -0.000000 16.090800 -0.212066 -0.346394 16.377300 -0.000001 -0.000001 4.471820 -3.875780 0.938391 6.456720 -0.000001 -0.000000 -7.039200 -2.819730 0.376987 12.994200 -0.242716 4.980390 -91.276200 5.777790 -77.521800 5.348090 -0.000007 -0.000001 -59.301300 33.410500 -26.047400 24.328600 0.000019 0.000005 11.605600 22.457400 -28.263900 22.291600 -0.000001 0.000005 9.024280 5.249550 1.444630 12.994500 -0.242716 -4.980390 88.863200 10.428700 -83.743800 -5.348130 -0.000001 -0.000004 -58.877200 36.269300 -20.768600 -24.328900 0.000322 -0.000009 1.643480 4.375150 -20.623800 -22.291500 -0.000108 -0.000004 16.360100 5.426860 -3.831690 -2.192480 -6.469440 -0.000000 -172.660000 -12.188900 0.873432 39.081100 -0.000007 -0.000012 -0.289702 0.391961 36.469000 40.985400 -0.000006 -0.000013 -1.117220 2.962850 -74.030300 11.754300 -0.000000 0.000003 -0.000232 -0.002098 -16.656300 -2.192510 6.469440 -0.000001 174.490000 18.451400 -177.806000 -39.081100 -0.002282 -0.040193 -0.208756 0.296816 35.542200 -40.985400 0.000008 0.000006 4.870190 10.113500 -74.841400 -11.754300 -0.000006 -0.000006 -0.002009 -0.028826 -17.745200
0.000000 0.000000 0.000000 0.000000 0.000000 -0.000000 -1.847550 89.549500 1.293980 88.918700 -3.041220 12.691400 15.735700 0.000005 -0.000001 89.500600 78.076700 -89.686200 8.984550 -0.406207 -0.000000 16.079400 -0.218186 -0.340914 16.377300 -0.000001 -0.000001 4.508550 -3.894550 0.976183 6.456720 -0.000001 -0.000000 -7.098440 -2.859260 0.397172 12.994200 -0.242716 4.980390 -91.260300 5.679480 -77.466900 5.348090 -0.000007 -0.000001 -58.818700 32.851200 -26.492000 24.328600 0.000019 0.000005 12.238000 21.799600 -30.288000 22.291600 -0.000001 0.000005 9.220690 5.246650 1.520740 12.994500 -0.242716 -4.980390 88.873200 10.390300 -83.776200 -5.348130 -0.000001 -0.000004 -58.976800 36.178300 -20.660500 -24.328900 0.000322 -0.000009 1.616690 4.307640 -20.606700 -22.291500 -0.000108 -0.000004 16.231300 5.425790 -3.794980 -2.192480 -6.469440 -0.000000 -172.722000 -12.140600 0.819420 39.081100 -0.000007 -0.000012 -0.289524 0.391744 36.467400 40.985400 -0.000006 -0.000013 -1.096390 2.957390 -73.987400 11.754300 -0.000000 0.000003 -0.000236 -0.002127 -16.657400 -2.192510 6.469440 -0.000001 174.447000 18.495700 -177.838000 -39.081100 -0.002282 -0.040193 -0.211834 0.301067 35.547500 -40.985400 0.000008 0.000006 4.813200 10.113100 -74.798400 -11.754300 -0.000006 -0.000006 -0.001863 -0.026989 -17.670500
0.000000 0.000000 0.000000 0.000000 0.000000 -0.000000 -1.828940 89.551000 1.262580 88.938000 -2.941700 12.712300 15.735700 0.000005 -0.000001 89.498000 78.078400 -89.682500 8.984550 -0.406207 -0.000000 16.075900 -0.219126 -0.338459 16.377300 -0.000001 -0.000001 4.624620 -3.905190 0.942698 6.456720 -0.000001 -0.000000 -7.243600 -2.934100 0.500382 12.994200 -0.242716 4.980390 -91.246400 5.583460 -77.394600 5.348090 -0.000007 -0.000001 -58.362000 31.973500 -27.121100 24.328600 0.000019 0.000005 12.883100 21.169700 -32.347700 22.291600 -0.000001 0.000005 9.323770 5.242970 1.617800 12.994500 -0.242716 -4.980390 88.883000 10.347500 -83.804900 -5.348130 -0.000001 -0.000004 -59.006400 36.194800 -20.598200 -24.328900 0.000322 -0.000009 1.642610 4.397050 -20.519800 -22.291500 -0.000108 -0.000004 16.253400 5.425610 -3.789040 -2.192480 -6.469440 -0.000000 -172.771000 -12.078300 0.793152 39.081100 -0.000007 -0.000012 -0.290135 0.392473 36.474200 40.985400 -0.000006 -0.000013 -1.072850 2.971340 -73.961000 11.754300 -0.000000 0.000003 -0.000223 -0.002032 -16.654000 -2.192510 6.469440 -0.000001 174.386000 18.565900 -177.832000 -39.081100 -0.002282 -0.040193 -0.214250 0.304340 35.557100 -40.985400 0.000008 0.000006 4.765370 10.114800 -74.774700 -11.754300 -0.000006 -0.000006 -0.001953 -0.028122 -17.716600
